<?xml version="1.0" encoding="utf-8"?>
<!-- Generator: Adobe Illustrator 24.2.3, SVG Export Plug-In . SVG Version: 6.00 Build 0)  -->
<svg version="1.1" id="Layer_1" xmlns="http://www.w3.org/2000/svg" xmlns:xlink="http://www.w3.org/1999/xlink" x="0px" y="0px"
	 viewBox="0 0 900 800" style="enable-background:new 0 0 900 800;" xml:space="preserve">
<style type="text/css">
	.st0{fill:#050505;}
	.st1{font-family:'RobotoSlab-Regular';}
	.st2{font-size:18.119px;}
	.st3{fill:none;stroke:#BFBFBF;stroke-miterlimit:10;}
	.st4{fill:#FFFFFF;}
	.st5{font-family:'RobotoSlab-Bold';}
	.st6{font-size:16px;}
	.st7{fill:none;stroke:#D9D9D9;stroke-width:0.5;stroke-miterlimit:10;}
</style>
<text transform="matrix(1.949614e-03 -1 1 3.711567e-03 19.5006 755.1849)" class="st0 st1 st2">Intensity</text>
<text transform="matrix(1 1.949614e-03 -3.711567e-03 1 36.7926 791.918)" class="st0 st1 st2">Frequency</text>
<g>
	<line class="st3" x1="28" y1="771.4" x2="880" y2="771.4"/>
</g>
<g>
	<line class="st3" x1="27.4" y1="772" x2="27.5" y2="19"/>
</g>
<g>
	<rect x="139.7" y="759" class="st4" width="66.3" height="21.8"/>
	<text transform="matrix(1 0 0 1 145.3931 776.0518)" class="st0 st5 st6">Seldom</text>
</g>
<g>
	<rect x="416.5" y="758.7" class="st4" width="95.5" height="25"/>
	<text transform="matrix(1 0 0 1 422.7349 775.6318)" class="st0 st5 st6">Sometimes</text>
</g>
<g>
	<rect x="719" y="758.7" class="st4" width="55" height="25"/>
	<text transform="matrix(1 0 0 1 725.6855 775.3408)" class="st0 st5 st6">Often</text>
</g>
<g>
	
		<rect x="5.6" y="632.8" transform="matrix(6.123234e-17 -1 1 6.123234e-17 -614.3523 669.3322)" class="st4" width="43.7" height="18.1"/>
	<text transform="matrix(0 -1 1 0 31.019 658.4238)" class="st0 st5 st6">Low</text>
</g>
<g>
	
		<rect x="-16.5" y="382.9" transform="matrix(6.123234e-17 -1 1 6.123234e-17 -364.51 419.49)" class="st4" width="88" height="18.1"/>
	<text transform="matrix(0 -1 1 0 31.23 429.0137)" class="st0 st5 st6">Moderate</text>
</g>
<g>
	
		<rect x="0.7" y="134.7" transform="matrix(6.123234e-17 -1 1 6.123234e-17 -116.2848 169.7152)" class="st4" width="52" height="16.6"/>
	<text transform="matrix(0 -1 1 0 30.874 161.5229)" class="st0 st5 st6">High</text>
</g>
<g>
	<line class="st7" x1="46" y1="275.2" x2="875" y2="275.2"/>
</g>
<g>
	<line class="st7" x1="47" y1="519.5" x2="874" y2="519.5"/>
</g>
<line class="st7" x1="309.7" y1="24" x2="309.7" y2="757"/>
<line class="st7" x1="602.5" y1="25" x2="602.5" y2="756"/>
</svg>
